<svg xmlns="http://www.w3.org/2000/svg" viewBox="0 0 460 412" width="460" height="412">
  <g fill="#C0C0C0" fill-rule="evenodd">
    <path d="M171.00,259.50 L124.00,259.50 L123.00,255.50 L116.00,255.50 L111.00,247.50 L104.00,247.50 L103.50,244.00 L87.50,231.00 L87.50,220.00 L83.50,219.00 L83.50,208.00 L79.50,207.00 L79.50,172.00 L75.50,171.00 L75.50,156.00 L79.50,155.00 L79.50,132.00 L83.50,131.00 L84.00,123.50 L91.00,123.50 L92.00,127.50 L99.00,127.50 L100.00,131.50 L111.00,131.50 L112.00,135.50 L119.00,135.50 L120.00,139.50 L135.00,143.50 L140.00,151.50 L155.00,155.50 L160.00,163.50 L167.00,163.50 L176.00,175.50 L191.00,179.50 L191.50,183.00 L215.50,204.00 L215.50,219.00 L211.50,220.00 L211.50,227.00 L208.00,227.50 L187.00,251.50 L180.00,251.50 L179.00,255.50 L172.00,255.50 L171.00,259.50 Z"/>
    <path d="M339.00,259.50 L300.00,259.50 L299.00,255.50 L288.00,255.50 L283.00,247.50 L276.00,247.50 L275.50,244.00 L259.50,231.00 L259.50,224.00 L251.50,219.00 L251.50,204.00 L267.50,191.00 L268.00,183.50 L283.00,179.50 L288.00,171.50 L295.00,171.50 L300.00,163.50 L307.00,163.50 L308.00,159.50 L323.00,155.50 L328.00,147.50 L339.00,147.50 L340.00,143.50 L347.00,143.50 L348.00,139.50 L355.00,139.50 L356.00,135.50 L363.00,135.50 L364.00,131.50 L371.00,131.50 L372.00,127.50 L383.00,127.50 L383.50,135.00 L387.50,136.00 L387.50,155.00 L391.50,156.00 L391.50,187.00 L387.50,188.00 L387.50,211.00 L383.50,212.00 L383.50,219.00 L379.50,220.00 L375.50,235.00 L368.00,235.50 L359.00,247.50 L352.00,247.50 L347.00,255.50 L340.00,255.50 L339.00,259.50 Z"/>
    <path d="M335.50,231.00 L336.00,227.50 L343.00,227.50 L343.50,224.00 L355.50,215.00 L355.50,200.00 L359.50,199.00 L359.50,180.00 L356.00,179.50 L355.00,175.50 L348.00,175.50 L347.50,179.00 L335.50,188.00 L335.50,191.00 L339.50,192.00 L339.50,203.00 L335.50,204.00 L335.50,211.00 L332.00,211.50 L331.00,215.50 L324.00,215.50 L323.00,219.50 L316.00,219.50 L315.00,223.50 L300.00,223.50 L295.00,215.50 L287.50,216.00 L288.00,223.50 L295.00,223.50 L296.00,227.50 L303.00,227.50 L304.00,231.50 L335.50,231.00 Z"/>
    <path d="M155.50,231.00 L155.00,223.50 L144.00,223.50 L143.00,219.50 L135.50,219.00 L135.50,212.00 L131.50,211.00 L131.50,204.00 L127.50,203.00 L127.50,188.00 L124.00,187.50 L119.00,179.50 L112.00,179.50 L111.50,207.00 L115.50,208.00 L115.50,215.00 L119.00,215.50 L128.00,227.50 L135.00,227.50 L136.00,231.50 L155.50,231.00 Z"/>
    <path d="M171.50,227.00 L171.00,223.50 L159.50,224.00 L160.00,227.50 L171.50,227.00 Z"/>
    <path d="M239.00,319.50 L227.50,319.00 L227.50,312.00 L219.50,307.00 L219.50,300.00 L215.50,299.00 L215.50,292.00 L211.50,291.00 L211.50,284.00 L203.50,279.00 L203.50,272.00 L199.50,271.00 L199.50,264.00 L203.00,263.50 L208.00,255.50 L215.00,255.50 L216.00,251.50 L223.00,251.50 L224.00,247.50 L231.00,247.50 L236.00,239.50 L239.00,239.50 L239.50,243.00 L243.00,243.50 L248.00,251.50 L255.00,251.50 L255.50,255.00 L259.50,256.00 L259.50,259.00 L255.50,260.00 L256.00,263.50 L267.50,264.00 L267.50,267.00 L263.50,268.00 L263.50,279.00 L255.50,284.00 L255.50,295.00 L251.50,296.00 L251.50,303.00 L248.00,303.50 L247.50,307.00 L239.50,312.00 L239.00,319.50 Z"/>
  </g>
</svg>
